# xmcd
#
# Track frame offsets:
#	183
#	18263
#	31750
#	46133
#	57673
#	66693
#	80973
#	91308
#	102640
#	116533
#	128475
#	141085
#	151893
#	163143
#	174353
#	185778
#	199673
#	210960
#	221508
#	239955
#	251388
#
# Disc length: 3507 seconds
#
# Revision: 1
# Processed by: cddbd v1.5.2PL0 Copyright (c) Steve Scherf et al.
# Submitted via: audiograbber 1.83.01
#
DISCID=320db115
DTITLE=Various Artist - COUNTRY FAVOURITES   CD 1
DYEAR=1900
DGENRE=Country
TTITLE0=WAYLON JENNINGS - LUCILLE
TTITLE1=RINA HUGO - LIEFSTE MADELEIN
TTITLE2=TENNESSEE ERNIE FORD - BORN TO LOSE
TTITLE3=FLOYD CRAMER - GAMES PEOPLE PLAY
TTITLE4=JIM REEVES - I WON'T FORGET YOU
TTITLE5=BOBBIE GENTRY and GLEN CAMPBELL - MY ELUSIVE DREAMS
TTITLE6=CONNIE FRANCIS - BYE BYE LOVE
TTITLE7=ELVIS PRESLEY WITH THE JORDANAIRES - HAVE I TOLD YOU LATELY
TTITLE8=LORETTA LYNN - PAPER ROSES
TTITLE9=GLEN CAMPBELL - MY PRAYER
TTITLE10=ANNE MURRAY - I JUST FALL IN LOVE AGAIN
TTITLE11=BOOTS RANDOLPH - IT KEEPS RIGHT ON A HURTIN
TTITLE12=SKEET DAVIS - MY HAPPINESS
TTITLE13=KOOS DU PLESSIS - KINDERS VAN DIE WIND
TTITLE14=ROGER MILLER - WALKIN IN THE SUNSHINE
TTITLE15=KENNY ROGERS and DOTTIE WEST - ALL I EVER NEED IS YOU
TTITLE16=FLOYD CRAMER - CHATTANOOGIE SHOE SHINE BOY
TTITLE17=JIM REEVES - YOU'RE THE ONLY GOOD THING ( THAT'S HAPPEN TO ME)
TTITLE18=RINA HUGO - EK SIEN VANDAG DIE SON WEER SKYN
TTITLE19=GLEN CAMPBELL - DREAMS OF THE EVERYDAY HOUSEWIFE
TTITLE20=CONWAY TWITTY and LORETTA LYNN - LET YOUR LOVE FLOW
EXTD=
EXTT0=
EXTT1=
EXTT2=
EXTT3=
EXTT4=
EXTT5=
EXTT6=
EXTT7=
EXTT8=
EXTT9=
EXTT10=
EXTT11=
EXTT12=
EXTT13=
EXTT14=
EXTT15=
EXTT16=
EXTT17=
EXTT18=
EXTT19=
EXTT20=
PLAYORDER=
